<svg width="33" height="32" viewBox="0 0 33 32" fill="none" xmlns="http://www.w3.org/2000/svg">
<path d="M22.7793 26.8939C20.93 27.9654 18.7857 28.5809 16.5 28.5809C9.56311 28.5809 3.9203 22.9375 3.9203 16C3.9203 9.06245 9.56311 3.41911 16.5 3.41911C23.4369 3.41911 29.0797 9.06245 29.0797 16C29.0797 18.474 28.3604 20.781 27.122 22.7284C28.3439 22.8548 29.3972 23.5395 30.0307 24.5222C31.5911 22.0527 32.5 19.1317 32.5 16C32.4985 7.17833 25.3208 0 16.4985 0C7.67615 0 0.5 7.17833 0.5 16C0.5 24.8217 7.67615 32 16.4985 32C19.3906 32 22.1007 31.225 24.4451 29.8781C23.4941 29.2084 22.8546 28.1279 22.7793 26.8939Z" fill="#1D2D57"/>
<path d="M29.6739 26.79C29.6739 28.3731 28.3919 29.6553 26.8089 29.6553C25.2259 29.6553 23.9438 28.3716 23.9438 26.79C23.9438 25.2084 25.2274 23.9247 26.8089 23.9247C28.3919 23.9247 29.6739 25.2084 29.6739 26.79Z" fill="#1D2D57"/>
<path d="M31.7913 29.9669C31.7913 30.5749 31.2978 31.0685 30.6899 31.0685C30.0819 31.0685 29.5884 30.5749 29.5884 29.9669C29.5884 29.359 30.0819 28.8654 30.6899 28.8654C31.2978 28.8654 31.7913 29.359 31.7913 29.9669Z" fill="#1D2D57"/>
</svg>
