<svg width="32" height="32" viewBox="0 0 32 32" fill="none" xmlns="http://www.w3.org/2000/svg">
<path d="M22.2793 26.8939C20.43 27.9654 18.2857 28.5809 16 28.5809C9.06311 28.5809 3.4203 22.9375 3.4203 16C3.4203 9.06245 9.06311 3.41911 16 3.41911C22.9369 3.41911 28.5797 9.06245 28.5797 16C28.5797 18.474 27.8604 20.781 26.622 22.7284C27.8439 22.8548 28.8972 23.5395 29.5307 24.5222C31.0911 22.0527 32 19.1317 32 16C31.9985 7.17833 24.8208 0 15.9985 0C7.17615 0 0 7.17833 0 16C0 24.8217 7.17615 32 15.9985 32C18.8906 32 21.6007 31.225 23.9451 29.8781C22.9941 29.2084 22.3546 28.1279 22.2793 26.8939Z" fill="white"/>
<path d="M29.1741 26.7901C29.1741 28.3732 27.892 29.6554 26.309 29.6554C24.726 29.6554 23.444 28.3717 23.444 26.7901C23.444 25.2084 24.7275 23.9248 26.309 23.9248C27.892 23.9248 29.1741 25.2084 29.1741 26.7901Z" fill="white"/>
<path d="M31.2913 29.9669C31.2913 30.5749 30.7978 31.0685 30.1899 31.0685C29.5819 31.0685 29.0884 30.5749 29.0884 29.9669C29.0884 29.3589 29.5819 28.8653 30.1899 28.8653C30.7978 28.8653 31.2913 29.3589 31.2913 29.9669Z" fill="white"/>
</svg>
