<svg width="1919" height="818" viewBox="0 0 1919 818" fill="none" xmlns="http://www.w3.org/2000/svg">
<path opacity="0.1" d="M1819.95 -470V1450M1718.89 -470V1450M1617.84 -470V1450M1516.79 -470V1450M1415.74 -470V1450M1314.68 -470V1450M1213.63 -470V1450M1112.58 -470V1450M1011.53 -470V1450M910.473 -470V1450M809.42 -470V1450M708.367 -470V1450M607.316 -470V1450M506.263 -470V1450M405.21 -470V1450M304.157 -470V1450M203.104 -470V1450M102.053 -470V1450M1921 1348.95H0.999878M1921 1247.89H0.999878M1921 1146.84H0.999878M1921 1045.79H0.999878M1921 944.737H0.999878M1921 843.684H0.999878M1921 742.63H0.999878M1921 641.577H0.999878M1921 540.527H0.999878M1921 439.473H0.999878M1921 338.42H0.999878M1921 237.367H0.999878M1921 136.314H0.999878M1921 35.2633H0.999878M1921 -65.7899H0.999878M1921 -166.843H0.999878M1921 -267.896H0.999878M1921 -368.947H0.999878M1921 -470V1450H1V-470L1921 -470Z" stroke="url(#paint0_radial_118_778)"/>
<defs>
<radialGradient id="paint0_radial_118_778" cx="0" cy="0" r="1" gradientUnits="userSpaceOnUse" gradientTransform="translate(1.00016 762.5) rotate(-22.5651) scale(1407.23 892.961)">
<stop stop-color="#1D2D57"/>
<stop offset="1" stop-color="#1D2D57" stop-opacity="0"/>
</radialGradient>
</defs>
</svg>
