<svg width="1922" height="1922" viewBox="0 0 1922 1922" fill="none" xmlns="http://www.w3.org/2000/svg">
<path d="M1819.95 1V1921M1718.89 1V1921M1617.84 1V1921M1516.79 1V1921M1415.74 1V1921M1314.68 1V1921M1213.63 1V1921M1112.58 1V1921M1011.53 1V1921M910.473 1V1921M809.42 1V1921M708.367 1V1921M607.316 1V1921M506.263 1V1921M405.21 1V1921M304.157 1V1921M203.104 1V1921M102.053 1V1921M1921 1819.95H0.999878M1921 1718.89H0.999878M1921 1617.84H0.999878M1921 1516.79H0.999878M1921 1415.74H0.999878M1921 1314.68H0.999878M1921 1213.63H0.999878M1921 1112.58H0.999878M1921 1011.53H0.999878M1921 910.473H0.999878M1921 809.42H0.999878M1921 708.367H0.999878M1921 607.314H0.999878M1921 506.263H0.999878M1921 405.21H0.999878M1921 304.157H0.999878M1921 203.104H0.999878M1921 102.053H0.999878M1921 1V1921H1V1L1921 1Z" stroke="url(#paint0_radial_2011_260)"/>
<defs>
<radialGradient id="paint0_radial_2011_260" cx="0" cy="0" r="1" gradientUnits="userSpaceOnUse" gradientTransform="translate(961 880.5) scale(758.5 481.307)">
<stop stop-color="white"/>
<stop offset="1" stop-color="white" stop-opacity="0"/>
</radialGradient>
</defs>
</svg>
