<svg width="1922" height="1922" viewBox="0 0 1922 1922" fill="none" xmlns="http://www.w3.org/2000/svg">
<path d="M102.053 1V1921M203.106 1V1921M304.159 1V1921M405.21 1V1921M506.263 1V1921M607.316 1V1921M708.37 1V1921M809.423 1V1921M910.473 1V1921M1011.53 1V1921M1112.58 1V1921M1213.63 1V1921M1314.68 1V1921M1415.74 1V1921M1516.79 1V1921M1617.84 1V1921M1718.9 1V1921M1819.95 1V1921M1 1819.95H1921M1 1718.89H1921M1 1617.84H1921M1 1516.79H1921M1 1415.74H1921M1 1314.68H1921M1 1213.63H1921M1 1112.58H1921M1 1011.53H1921M1 910.473H1921M1 809.42H1921M1 708.367H1921M1 607.314H1921M1 506.263H1921M1 405.21H1921M1 304.157H1921M1 203.104H1921M1 102.053H1921M1 1V1921H1921V1L1 1Z" stroke="url(#paint0_radial_2011_265)"/>
<defs>
<radialGradient id="paint0_radial_2011_265" cx="0" cy="0" r="1" gradientUnits="userSpaceOnUse" gradientTransform="translate(1.00002 595.5) rotate(60) scale(1251.12)">
<stop stop-color="white"/>
<stop offset="1" stop-color="white" stop-opacity="0"/>
</radialGradient>
</defs>
</svg>
