<svg width="1920" height="1299" viewBox="0 0 1920 1299" fill="none" xmlns="http://www.w3.org/2000/svg">
<path opacity="0.1" d="M101.053 -622V1298M202.106 -622V1298M303.159 -622V1298M404.21 -622V1298M505.263 -622V1298M606.316 -622V1298M707.37 -622V1298M808.423 -622V1298M909.473 -622V1298M1010.53 -622V1298M1111.58 -622V1298M1212.63 -622V1298M1313.68 -622V1298M1414.74 -622V1298M1515.79 -622V1298M1616.84 -622V1298M1717.9 -622V1298M1818.95 -622V1298M0 1196.95H1920M0 1095.89H1920M0 994.841H1920M0 893.79H1920M0 792.737H1920M0 691.684H1920M0 590.63H1920M0 489.577H1920M0 388.527H1920M0 287.473H1920M0 186.42H1920M0 85.3672H1920M0 -15.6859H1920M0 -116.737H1920M0 -217.79H1920M0 -318.843H1920M0 -419.896H1920M0 -520.947H1920M0 -622V1298H1920V-622H0Z" stroke="url(#paint0_radial_85_972)"/>
<defs>
<radialGradient id="paint0_radial_85_972" cx="0" cy="0" r="1" gradientUnits="userSpaceOnUse" gradientTransform="translate(1.90695e-05 -27.5001) rotate(60) scale(1251.12)">
<stop stop-color="white"/>
<stop offset="1" stop-color="white" stop-opacity="0"/>
</radialGradient>
</defs>
</svg>
