<svg width="116" height="60" viewBox="0 0 116 60" fill="none" xmlns="http://www.w3.org/2000/svg">
<path d="M45.2059 50.4261C41.744 52.4351 37.73 53.5892 33.4513 53.5892C20.4657 53.5892 9.90264 43.0079 9.90264 30C9.90264 16.9921 20.4657 6.41084 33.4513 6.41084C46.4368 6.41084 56.9999 16.9921 56.9999 30C56.9999 34.6388 55.6535 38.9644 53.3352 42.6157C55.6225 42.8527 57.5943 44.1366 58.7802 45.9791C61.7012 41.3488 63.4026 35.8719 63.4026 30C63.3997 13.4594 49.9635 0 33.4485 0C16.9334 0 3.5 13.4594 3.5 30C3.5 46.5406 16.9334 60 33.4485 60C38.8624 60 43.9355 58.5468 48.3241 56.0214C46.5439 54.7658 45.3467 52.7398 45.2059 50.4261Z" fill="white"/>
<path d="M58.1127 50.2314C58.1127 53.1998 55.7128 55.6038 52.7495 55.6038C49.7862 55.6038 47.3862 53.197 47.3862 50.2314C47.3862 47.2658 49.789 44.8589 52.7495 44.8589C55.7128 44.8589 58.1127 47.2658 58.1127 50.2314Z" fill="white"/>
<path d="M62.076 56.1879C62.076 57.3279 61.1521 58.2534 60.0141 58.2534C58.8761 58.2534 57.9521 57.3279 57.9521 56.1879C57.9521 55.048 58.8761 54.1225 60.0141 54.1225C61.1521 54.1225 62.076 55.048 62.076 56.1879Z" fill="white"/>
<path d="M74.6953 29.2253C73.9865 29.9286 73.1239 30.2802 72.1076 30.2802C71.0912 30.2802 70.2287 29.9286 69.5199 29.2253C68.8178 28.5153 68.4668 27.648 68.4668 26.6233C68.4668 25.5985 68.8178 24.7345 69.5199 24.0313C70.2287 23.3213 71.0912 22.9663 72.1076 22.9663C73.1239 22.9663 73.9865 23.3213 74.6953 24.0313C75.404 24.7345 75.7584 25.5985 75.7584 26.6233C75.7584 27.648 75.404 28.5153 74.6953 29.2253ZM70.4928 28.2809C70.9274 28.7096 71.4657 28.9239 72.1076 28.9239C72.7495 28.9239 73.2878 28.7096 73.7224 28.2809C74.157 27.8456 74.3743 27.293 74.3743 26.6233C74.3743 25.9535 74.157 25.4009 73.7224 24.9656C73.2878 24.5302 72.7495 24.3126 72.1076 24.3126C71.4657 24.3126 70.9274 24.5302 70.4928 24.9656C70.0582 25.4009 69.8409 25.9535 69.8409 26.6233C69.8409 27.293 70.0582 27.8456 70.4928 28.2809Z" fill="white"/>
<path d="M80.08 25.1163H81.3738V30.1395H80.08V29.5769C79.7657 30.0458 79.2676 30.2802 78.5855 30.2802C78.0372 30.2802 77.5826 30.096 77.2215 29.7276C76.8671 29.3593 76.6899 28.8502 76.6899 28.2006V25.1163H77.9838V28.0398C77.9838 28.3747 78.074 28.6326 78.2546 28.8134C78.4351 28.9875 78.6758 29.0746 78.9767 29.0746C79.311 29.0746 79.5785 28.9708 79.7791 28.7632C79.9797 28.5555 80.08 28.2441 80.08 27.8288V25.1163Z" fill="white"/>
<path d="M83.9028 25.9803C84.0231 25.6588 84.2204 25.4177 84.4945 25.2569C84.7754 25.0962 85.0863 25.0158 85.4273 25.0158V26.4625C85.0328 26.4156 84.6784 26.496 84.3641 26.7036C84.0566 26.9113 83.9028 27.2562 83.9028 27.7384V30.1395H82.6089V25.1163H83.9028V25.9803Z" fill="white"/>
<path d="M75.7584 35.8326C75.7584 36.7434 75.4709 37.5338 74.8959 38.2035L75.618 38.957L74.6351 39.8311L73.8728 39.0374C73.3312 39.3388 72.7428 39.4895 72.1076 39.4895C71.0979 39.4895 70.2387 39.1379 69.5299 38.4346C68.8212 37.7246 68.4668 36.8573 68.4668 35.8326C68.4668 34.8078 68.8212 33.9438 69.5299 33.2406C70.2387 32.5306 71.0979 32.1756 72.1076 32.1756C73.1172 32.1756 73.9765 32.5306 74.6852 33.2406C75.4007 33.9438 75.7584 34.8078 75.7584 35.8326ZM72.1076 38.1332C72.3684 38.1332 72.6291 38.0897 72.8899 38.0026L71.7365 36.797L72.7194 35.923L73.9531 37.2089C74.2339 36.8071 74.3743 36.3483 74.3743 35.8326C74.3743 35.1628 74.157 34.6102 73.7224 34.1749C73.2878 33.7395 72.7495 33.5219 72.1076 33.5219C71.4657 33.5219 70.9274 33.7395 70.4928 34.1749C70.0582 34.6102 69.8409 35.1628 69.8409 35.8326C69.8409 36.4956 70.0582 37.0448 70.4928 37.4802C70.9274 37.9155 71.4657 38.1332 72.1076 38.1332Z" fill="white"/>
<path d="M80.1289 34.3256H81.4228V39.3488H80.1289V38.7862C79.8147 39.2551 79.3165 39.4895 78.6345 39.4895C78.0862 39.4895 77.6315 39.3053 77.2705 38.9369C76.9161 38.5686 76.7389 38.0595 76.7389 37.4099V34.3256H78.0327V37.2491C78.0327 37.584 78.123 37.8419 78.3035 38.0227C78.4841 38.1968 78.7248 38.2839 79.0257 38.2839C79.36 38.2839 79.6275 38.1801 79.828 37.9725C80.0286 37.7648 80.1289 37.4534 80.1289 37.0381V34.3256Z" fill="white"/>
<path d="M86.9306 38.7259C86.4157 39.235 85.7872 39.4895 85.045 39.4895C84.3028 39.4895 83.6743 39.235 83.1594 38.7259C82.6512 38.2102 82.3971 37.5806 82.3971 36.8372C82.3971 36.0938 82.6512 35.4675 83.1594 34.9585C83.6743 34.4428 84.3028 34.1849 85.045 34.1849C85.7872 34.1849 86.4157 34.4428 86.9306 34.9585C87.4454 35.4675 87.7029 36.0938 87.7029 36.8372C87.7029 37.5806 87.4454 38.2102 86.9306 38.7259ZM84.0721 37.8318C84.3329 38.093 84.6572 38.2236 85.045 38.2236C85.4328 38.2236 85.7571 38.093 86.0179 37.8318C86.2786 37.5706 86.409 37.2391 86.409 36.8372C86.409 36.4353 86.2786 36.1038 86.0179 35.8426C85.7571 35.5814 85.4328 35.4508 85.045 35.4508C84.6572 35.4508 84.3329 35.5814 84.0721 35.8426C83.818 36.1038 83.691 36.4353 83.691 36.8372C83.691 37.2391 83.818 37.5706 84.0721 37.8318Z" fill="white"/>
<path d="M91.424 35.5713H90.2906V37.661C90.2906 37.8352 90.3341 37.9624 90.421 38.0428C90.5079 38.1232 90.635 38.17 90.8021 38.1834C90.9693 38.1901 91.1766 38.1868 91.424 38.1734V39.3488C90.5347 39.4493 89.9061 39.3656 89.5384 39.0977C89.1773 38.8298 88.9968 38.3509 88.9968 37.661V35.5713H88.1242V34.3256H88.9968V33.3109L90.2906 32.9191V34.3256H91.424V35.5713Z" fill="white"/>
<path d="M93.0283 33.7228C92.8143 33.7228 92.6271 33.6458 92.4666 33.4917C92.3128 33.331 92.2359 33.1434 92.2359 32.9291C92.2359 32.7148 92.3128 32.5273 92.4666 32.3665C92.6271 32.2058 92.8143 32.1254 93.0283 32.1254C93.2489 32.1254 93.4361 32.2058 93.5899 32.3665C93.7504 32.5273 93.8306 32.7148 93.8306 32.9291C93.8306 33.1434 93.7504 33.331 93.5899 33.4917C93.4361 33.6458 93.2489 33.7228 93.0283 33.7228ZM92.3864 39.3488V34.3256H93.6802V39.3488H92.3864Z" fill="white"/>
<path d="M96.0078 37.3697C96.1816 37.9993 96.653 38.314 97.422 38.314C97.9168 38.314 98.2912 38.1466 98.5453 37.8117L99.5884 38.4145C99.0936 39.1312 98.3648 39.4895 97.4019 39.4895C96.5728 39.4895 95.9075 39.2383 95.406 38.736C94.9045 38.2337 94.6538 37.6007 94.6538 36.8372C94.6538 36.0804 94.9012 35.4508 95.396 34.9485C95.8908 34.4394 96.526 34.1849 97.3016 34.1849C98.0371 34.1849 98.6423 34.4394 99.117 34.9485C99.5984 35.4575 99.8391 36.0871 99.8391 36.8372C99.8391 37.0046 99.8224 37.1821 99.789 37.3697H96.0078ZM95.9877 36.365H98.5453C98.4718 36.0234 98.318 35.7689 98.0839 35.6015C97.8566 35.434 97.5958 35.3503 97.3016 35.3503C96.9539 35.3503 96.6664 35.4407 96.4391 35.6216C96.2117 35.7957 96.0613 36.0435 95.9877 36.365Z" fill="white"/>
<path d="M103.581 34.1849C104.129 34.1849 104.58 34.3691 104.935 34.7375C105.296 35.1059 105.476 35.6149 105.476 36.2646V39.3488H104.183V36.4253C104.183 36.0904 104.092 35.8359 103.912 35.6618C103.731 35.4809 103.491 35.3905 103.19 35.3905C102.855 35.3905 102.588 35.4943 102.387 35.7019C102.187 35.9096 102.086 36.221 102.086 36.6363V39.3488H100.793V34.3256H102.086V34.8882C102.401 34.4193 102.899 34.1849 103.581 34.1849Z" fill="white"/>
<path d="M109.5 35.5713H108.366V37.661C108.366 37.8352 108.41 37.9624 108.497 38.0428C108.584 38.1232 108.711 38.17 108.878 38.1834C109.045 38.1901 109.252 38.1868 109.5 38.1734V39.3488C108.611 39.4493 107.982 39.3656 107.614 39.0977C107.253 38.8298 107.073 38.3509 107.073 37.661V35.5713H106.2V34.3256H107.073V33.3109L108.366 32.9191V34.3256H109.5V35.5713Z" fill="white"/>
</svg>
