<svg width="425" height="1080" viewBox="0 0 425 1080" fill="none" xmlns="http://www.w3.org/2000/svg">
<g clip-path="url(#clip0_2040_259)">
<path d="M57.895 0V1080M115.79 0V1080M173.685 0V1080M231.579 0V1080M289.474 0V1080M347.369 0V1080M405.264 0V1080M463.159 0V1080M521.052 0V1080M578.947 0V1080M636.842 0V1080M694.737 0V1080M752.631 0V1080M810.526 0V1080M868.421 0V1080M926.316 0V1080M984.211 0V1080M1042.1 0V1080M0 1023.16H1100M0 966.315H1100M0 909.473H1100M0 852.632H1100M0 795.789H1100M0 738.947H1100M0 682.105H1100M0 625.262H1100M0 568.421H1100M0 511.579H1100M0 454.736H1100M0 397.894H1100M0 341.052H1100M0 284.211H1100M0 227.368H1100M0 170.526H1100M0 113.683H1100M0 56.8424H1100M0 0V1080H1100V0L0 0Z" stroke="url(#paint0_linear_2040_259)"/>
</g>
<defs>
<linearGradient id="paint0_linear_2040_259" x1="-358.393" y1="-275.063" x2="358.393" y2="943.875" gradientUnits="userSpaceOnUse">
<stop stop-color="#1D2D57"/>
<stop offset="1" stop-color="#1D2D57" stop-opacity="0"/>
</linearGradient>
<clipPath id="clip0_2040_259">
<rect width="425" height="1080" fill="white"/>
</clipPath>
</defs>
</svg>
