<svg width="1907" height="255" viewBox="0 0 1907 255" fill="none" xmlns="http://www.w3.org/2000/svg">
<path d="M123.249 259.891C49.884 259.891 0.974223 205.042 0.974223 129.931C0.974223 54.8193 49.884 0.319785 123.249 0.319785C196.613 0.319785 245.523 54.8193 245.523 129.931C245.523 205.042 196.613 259.891 123.249 259.891ZM123.249 231.943C186.133 231.943 214.081 183.731 214.081 129.931C214.081 76.1299 186.133 28.2682 123.249 28.2682C60.3647 28.2682 32.4162 76.1299 32.4162 129.931C32.4162 183.731 60.3647 231.943 123.249 231.943ZM396.89 76.8286H424.838V255H396.89V233.689H396.191C386.758 246.266 367.893 259.891 337.499 259.891C305.009 259.891 277.759 242.074 277.759 201.199V76.8286H305.708V194.212C305.708 217.27 316.538 235.436 344.486 235.436C375.928 235.436 396.89 215.523 396.89 187.924V76.8286ZM541.285 71.9377C547.923 71.9377 552.814 72.287 557.705 72.9857V100.934H557.006C518.228 94.6458 491.327 121.896 491.327 159.975V255H463.379V76.8286H491.327V112.114H492.026C501.459 88.7067 515.782 71.9377 541.285 71.9377ZM872.463 247.664L849.057 267.577L823.554 236.834C800.846 251.856 773.945 259.891 745.647 259.891C671.584 259.891 632.806 203.994 647.479 127.835C661.802 53.7712 720.494 0.319785 792.81 0.319785C867.223 0.319785 906.002 55.8673 891.329 132.027C885.04 164.866 869.669 194.561 846.961 216.92L872.463 247.664ZM748.093 231.943C771.15 231.943 790.365 225.305 806.435 214.824L780.234 182.683L803.291 162.77L829.842 194.561C845.214 176.395 855.694 152.988 860.585 127.835C871.066 75.0819 852.9 28.2682 790.714 28.2682C727.132 28.2682 688.702 77.178 678.222 132.027C668.09 184.78 685.908 231.943 748.093 231.943ZM1050.61 76.8286H1078.56L1043.62 255H1015.67L1020.22 233.689L1019.52 234.388C1007.64 246.965 986.678 259.891 956.983 259.891C923.794 259.891 899.339 241.026 907.374 200.151L931.48 76.8286H959.428L936.371 195.26C931.829 218.318 938.467 235.436 965.717 235.436C997.858 235.436 1023.71 214.475 1028.95 186.876L1050.61 76.8286ZM1155.91 259.891C1102.11 259.891 1077.66 222.51 1088.14 168.01C1098.97 111.415 1140.54 71.9377 1195.74 71.9377C1249.19 71.9377 1273.64 109.319 1263.16 163.818C1252.33 220.414 1210.76 259.891 1155.91 259.891ZM1161.5 235.436C1200.63 235.436 1225.78 205.042 1234.52 168.01C1243.25 128.883 1230.67 96.3926 1190.15 96.3926C1150.67 96.3926 1125.52 126.787 1116.78 163.818C1108.05 202.946 1120.63 235.436 1161.5 235.436ZM1373.33 101.284H1338.39L1317.43 209.584C1313.24 229.846 1323.37 232.292 1347.48 230.545L1344.33 255.349C1337.7 256.747 1330.36 257.096 1323.72 257.096C1299.27 257.096 1282.15 246.615 1289.14 210.282L1310.45 101.284H1284.24L1289.14 76.8286H1315.34L1326.87 17.4382H1354.81L1343.29 76.8286H1378.22L1373.33 101.284ZM1429.2 42.2425C1420.47 42.2425 1411.38 35.2553 1413.48 23.3772C1415.57 13.5953 1425.36 8.70431 1432.34 8.70431C1441.08 8.70431 1450.16 15.6914 1447.72 27.5695C1445.97 37.3515 1436.19 42.2425 1429.2 42.2425ZM1406.84 76.8286H1434.79L1399.85 255H1371.91L1406.84 76.8286ZM1519 235.436C1555.33 235.436 1573.84 211.331 1579.43 199.103H1609.13C1594.46 234.737 1561.97 259.891 1518.3 259.891C1463.45 259.891 1437.25 219.016 1448.43 162.071C1459.95 103.729 1499.08 71.9377 1550.44 71.9377C1607.03 71.9377 1627.64 111.065 1615.07 174.299H1474.28C1467.99 206.44 1480.92 235.436 1519 235.436ZM1548.69 96.3926C1514.45 96.3926 1484.76 121.197 1479.17 149.844H1592.36C1597.95 119.101 1583.63 96.3926 1548.69 96.3926ZM1747.23 71.9377C1780.42 71.9377 1804.87 90.8029 1796.84 131.677L1772.73 255H1744.78L1767.84 136.568C1772.38 113.511 1765.74 96.3926 1738.49 96.3926C1706.35 96.3926 1680.5 117.354 1675.26 144.953L1653.6 255H1625.65L1660.59 76.8286H1688.54L1683.99 98.1393L1684.69 97.4406C1696.57 84.8638 1717.53 71.9377 1747.23 71.9377ZM1911.69 101.284H1876.76L1855.8 209.584C1851.6 229.846 1861.73 232.292 1885.84 230.545L1882.7 255.349C1876.06 256.747 1868.72 257.096 1862.08 257.096C1837.63 257.096 1820.51 246.615 1827.5 210.282L1848.81 101.284H1822.61L1827.5 76.8286H1853.7L1865.23 17.4382H1893.18L1881.65 76.8286H1916.58L1911.69 101.284Z" fill="#1D2D57"/>
</svg>
